<?xml version="1.0" encoding="UTF-8"?>
<svg width="512" height="512" version="1.1" viewBox="0 0 512 512" xmlns="http://www.w3.org/2000/svg"><path transform="matrix(.46902 -.64914 .65323 .47197 -48.762 292.89)" d="m368.23 132.32c-3.9647-.0489-7.9057 1.0876-11.297 3.2608-4.5918 2.9428-9.0619 11.001-11.828 15.762l-77.175 132.84a10.023 10.023 165 01-13.655 3.6587l-1.5832-.90838a12.934 12.934 67.467 01-6.0514-14.586l37.181-137.89c1.4333-5.3158 4.0136-14.166 2.8576-19.496-.85023-3.9196-2.8236-7.492-5.6552-10.244-3.9052-3.7952-13.161-6.2565-18.44-4.9176-3.8464.97555-7.3615 3.0938-10.075 6.0743-3.6712 4.0332-5.8926 12.977-7.3258 18.293l-34.406 127.61a7.6832 7.6832 157.47 01-11.242 4.6641l-.88637-.50855a17.213 17.213 59.922 01-8.6468-14.93l-.00077-111.03c-4e-5-5.5056.17913-14.747-2.4293-19.53-1.8423-3.3784-4.6305-6.1667-8.0088-8.0091-4.7833-2.6086-14.339-2.6088-19.123-.00045-3.3787 1.8424-6.1673 4.631-8.0098 8.0097-2.6084 4.7834-2.4292 14.025-2.4292 19.53l.00017 128.6a37.003 37.003 105.08 01-5.0078 18.588l-12.476 21.473c-2.7658 4.7605-7.2885 12.465-9.6868 17.419-23.863 49.294-13.01 105.82 25.579 134.17 4.4346 3.258 10.288 6.5484 12.68 7.9205 45.769 20.381 90.898 9.9285 123.18-22.119 3.9066-3.8776 11.259-7.2902 16.764-7.2902l80.524 1e-4c5.5056 0 14.635.17134 19.68-1.9432 5.9813-2.5074 10.776-7.2614 13.312-13.198 2.1486-5.0283 2.1489-14.374.00066-19.403-2.5366-5.9376-7.3313-10.692-13.313-13.2-5.0441-2.1145-14.174-1.9431-19.68-1.943l-49.081.00042a5.7374 5.7374 60.078 01-4.9609-8.6196 41.663 41.663 133.88 017.5505-7.8521l112.27-111.57c3.9052-3.8808 10.584-10.255 12.197-15.461 1.155-3.729 1.2021-7.7092.137-11.426-1.5003-5.2352-8.295-11.978-13.534-13.469-3.7565-1.0689-7.782-1.022-11.551.13635-5.2113 1.6016-11.627 8.231-15.532 12.112l-94.682 94.09a13.07 13.07 172.51 01-15.718 2.0659l-2.4544-1.4082a9.9148 9.9148 75 01-3.6388-13.581l77.175-132.84c2.7658-4.7605 7.5597-12.637 7.8232-18.084.19296-3.9884-.78265-7.9311-2.7949-11.307-2.7878-4.6774-11.099-9.4395-16.545-9.5067z" fill="#f05537"/><circle cx="256" cy="256" r="201.07" fill="none" stroke="#f05537" stroke-width="7.8544"/></svg>
